<?xml version="1.0" encoding="UTF-8" standalone="no"?>
<!-- Created with Inkscape (http://www.inkscape.org/) -->

<svg
   xmlns:dc="http://purl.org/dc/elements/1.1/"
   xmlns:cc="http://creativecommons.org/ns#"
   xmlns:rdf="http://www.w3.org/1999/02/22-rdf-syntax-ns#"
   xmlns:svg="http://www.w3.org/2000/svg"
   xmlns="http://www.w3.org/2000/svg"
   xmlns:sodipodi="http://sodipodi.sourceforge.net/DTD/sodipodi-0.dtd"
   xmlns:inkscape="http://www.inkscape.org/namespaces/inkscape"
   width="65"
   height="22"
   id="svg2857"
   version="1.1"
   inkscape:version="0.91 r13725"
   sodipodi:docname="toggle-on-us.svg">
  <defs
     id="defs2859">
    <inkscape:perspective
       sodipodi:type="inkscape:persp3d"
       inkscape:vp_x="0 : 526.18109 : 1"
       inkscape:vp_y="0 : 1000 : 0"
       inkscape:vp_z="744.09448 : 526.18109 : 1"
       inkscape:persp3d-origin="372.04724 : 350.78739 : 1"
       id="perspective2865" />
    <inkscape:perspective
       id="perspective2843"
       inkscape:persp3d-origin="0.5 : 0.33333333 : 1"
       inkscape:vp_z="1 : 0.5 : 1"
       inkscape:vp_y="0 : 1000 : 0"
       inkscape:vp_x="0 : 0.5 : 1"
       sodipodi:type="inkscape:persp3d" />
  </defs>
  <sodipodi:namedview
     id="base"
     pagecolor="#ffffff"
     bordercolor="#666666"
     borderopacity="1.0"
     inkscape:pageopacity="0.0"
     inkscape:pageshadow="2"
     inkscape:zoom="11.723077"
     inkscape:cx="32.5"
     inkscape:cy="11"
     inkscape:document-units="px"
     inkscape:current-layer="layer1"
     showgrid="false"
     inkscape:window-width="941"
     inkscape:window-height="751"
     inkscape:window-x="179"
     inkscape:window-y="91"
     inkscape:window-maximized="0"
     borderlayer="true"
     inkscape:showpageshadow="false" />
  <metadata
     id="metadata2862">
    <rdf:RDF>
      <cc:Work
         rdf:about="">
        <dc:format>image/svg+xml</dc:format>
        <dc:type
           rdf:resource="http://purl.org/dc/dcmitype/StillImage" />
        <dc:title />
      </cc:Work>
    </rdf:RDF>
  </metadata>
  <g
     inkscape:label="Layer 1"
     inkscape:groupmode="layer"
     id="layer1"
     transform="translate(-444.64286,-781.36218)">
    <g
       style="display:inline"
       transform="translate(-351.35714,708.36218)"
       id="g16453">
      <rect
         style="color:#000000;fill:#4a90d9;fill-opacity:1;fill-rule:nonzero;stroke:#3465a4;stroke-width:0.99999994000000003;stroke-linecap:round;stroke-linejoin:miter;stroke-miterlimit:4;stroke-opacity:1;stroke-dasharray:none;stroke-dashoffset:0;marker:none;visibility:visible;display:inline;overflow:visible;enable-background:accumulate"
         id="rect16256-9-4"
         width="63.000004"
         height="19"
         x="-859.5"
         y="74.5"
         rx="4"
         ry="4"
         transform="scale(-1,1)" />
      <rect
         style="fill:#000000;fill-opacity:1;stroke:#5f5f5f;stroke-width:2;stroke-linecap:round;stroke-linejoin:miter;stroke-miterlimit:4;stroke-opacity:1;stroke-dasharray:none;stroke-dashoffset:0;display:inline"
         id="rect16258-5-4"
         width="31"
         height="20"
         x="-860"
         y="74"
         rx="4"
         ry="4"
         transform="scale(-1,1)" />
      <g
         style="display:inline"
         id="g16298-3-6"
         transform="matrix(-1,0,0,1,1651.1322,-33.986291)">
        <path
           inkscape:connector-curvature="0"
           id="path16265-3-5"
           d="m 803.6322,115.48629 0,4.29495"
           style="fill:none;stroke:#5f5f5f;stroke-width:1px;stroke-linecap:round;stroke-linejoin:miter;stroke-opacity:1" />
        <path
           inkscape:connector-curvature="0"
           id="path16265-0-2-0"
           d="m 806.62805,115.48629 0,4.29495"
           style="fill:none;stroke:#5f5f5f;stroke-width:1px;stroke-linecap:round;stroke-linejoin:miter;stroke-opacity:1;display:inline" />
        <path
           inkscape:connector-curvature="0"
           id="path16265-8-7-1"
           d="m 809.6239,115.48629 0,4.29495"
           style="fill:none;stroke:#5f5f5f;stroke-width:1px;stroke-linecap:round;stroke-linejoin:miter;stroke-opacity:1;display:inline" />
      </g>
      <g
         style="font-size:8.95877075px;font-style:normal;font-variant:normal;font-weight:bold;font-stretch:normal;text-indent:0;text-align:start;text-decoration:none;line-height:125%;letter-spacing:normal;word-spacing:normal;text-transform:none;direction:ltr;block-progression:tb;writing-mode:lr-tb;text-anchor:start;color:#000000;fill:#ffffff;fill-opacity:1;fill-rule:nonzero;stroke:none;stroke-width:1px;marker:none;visibility:visible;display:inline;overflow:visible;enable-background:accumulate;font-family:Cantarell;-inkscape-font-specification:Cantarell Bold"
         id="text42229-3-0">
        <path
           d="m 808.01473,80.573953 c 0.63283,6e-6 1.19567,0.123947 1.68852,0.371824 0.49284,0.247888 0.88071,0.609505 1.16359,1.084851 0.28287,0.472439 0.42431,1.022155 0.42432,1.649149 -10e-6,0.635748 -0.13853,1.200045 -0.41557,1.692892 -0.27705,0.489934 -0.66637,0.870506 -1.16796,1.141719 -0.50161,0.271212 -1.07757,0.406819 -1.72789,0.406819 -0.4287,0 -0.83552,-0.06562 -1.22046,-0.196848 -0.38495,-0.134148 -0.73053,-0.32808 -1.03673,-0.581795 -0.3033,-0.256631 -0.54535,-0.589085 -0.72615,-0.997363 -0.1779,-0.408276 -0.26684,-0.869045 -0.26684,-1.382311 0,-0.638658 0.13998,-1.200039 0.41994,-1.684144 0.27996,-0.487011 0.66782,-0.858835 1.16359,-1.115472 0.49576,-0.259541 1.06298,-0.389315 1.70164,-0.389321 m 0.57305,1.089225 c -0.20123,-0.05249 -0.40682,-0.07873 -0.61679,-0.07874 -0.20998,5e-6 -0.41411,0.02625 -0.61242,0.07874 -0.19831,0.04958 -0.38932,0.129779 -0.57304,0.240592 -0.18081,0.107907 -0.33975,0.242055 -0.47681,0.402445 -0.13707,0.160399 -0.24643,0.358705 -0.32808,0.594918 -0.0817,0.233305 -0.12249,0.491395 -0.12249,0.774269 0,0.67366 0.20851,1.214627 0.62554,1.622902 0.41703,0.408279 0.93758,0.612417 1.56166,0.612416 0.25955,10e-7 0.51035,-0.04228 0.7524,-0.126857 0.24496,-0.08457 0.47097,-0.20997 0.67803,-0.376199 0.20705,-0.166225 0.37328,-0.392236 0.49868,-0.678031 0.1254,-0.285792 0.1881,-0.610956 0.1881,-0.975492 0,-0.297455 -0.0437,-0.568668 -0.13123,-0.813638 -0.0875,-0.247878 -0.20414,-0.453475 -0.34995,-0.61679 -0.1429,-0.163307 -0.31059,-0.301829 -0.50306,-0.415568 -0.18956,-0.11373 -0.38641,-0.195385 -0.59054,-0.244967"
           style="line-height:125%;fill:#ffffff;fill-opacity:1;marker:none;font-family:Cantarell;-inkscape-font-specification:Cantarell Bold"
           id="path18606" />
        <path
           d="m 813.15903,80.639569 1.21608,0 3.4689,4.776844 0,-4.776844 1.10235,0 0,6.216022 -1.22921,0 -3.45577,-4.785594 0,4.785594 -1.10235,0 0,-6.216022"
           style="line-height:125%;fill:#ffffff;fill-opacity:1;marker:none;font-family:Cantarell;-inkscape-font-specification:Cantarell Bold"
           id="path18608" />
      </g>
    </g>
    <path
       style="fill:#999999"
       d="M 3.6381809,19.85901 C 2.6351616,19.58892 1.8017859,18.906518 1.3510593,17.98622 l -0.2506656,-0.511811 0,-6.440288 0,-6.440289 0.2723801,-0.5749985 C 1.8635067,2.9828891 2.764216,2.2964366 3.9096953,2.0853837 4.2629537,2.0202964 8.7268811,1.992126 18.687451,1.992126 l 14.271602,0 -0.260427,0.4232475 c -0.347577,0.5648838 -0.580337,1.2503913 -0.676905,1.9935674 -0.103524,0.7967011 -0.103524,12.3683561 0,13.1650571 0.09614,0.739885 0.341933,1.466707 0.680281,2.011632 l 0.251581,0.405184 -14.433812,-0.0056 C 6.3631255,19.980472 4.0153139,19.960563 3.6381809,19.85901 Z M 13.511811,13.620881 C 14.37503,13.207536 14.876344,12.646157 15.140678,11.79685 15.448106,10.80908 15.318306,9.703346 14.798779,8.8843106 13.964223,7.568629 11.825982,7.1459225 10.246011,7.9842789 9.2751424,8.4994366 8.7976284,9.3273728 8.7491715,10.57957 c -0.036455,0.942052 0.1175458,1.558114 0.5220706,2.088482 0.683879,0.896625 1.5730899,1.280749 2.8757399,1.242268 0.702862,-0.02076 0.883924,-0.05916 1.364829,-0.289439 z m 4.796858,-2.085063 0.0227,-2.3132625 1.663386,2.3107945 1.663385,2.310794 0.66109,0.0025 0.661089,0.0025 0,-3.113518 0,-3.1135166 -0.595742,0 -0.595742,0 -0.0227,2.2954037 -0.0227,2.2954109 -1.663386,-2.2933884 -1.663385,-2.293388 -0.66109,-0.00202 -0.661089,-0.00202 0,3.1135168 0,3.113517 0.595742,0 0.595742,0 0.0227,-2.313263 z"
       id="path3345"
       inkscape:connector-curvature="0"
       transform="translate(444.64286,781.36218)" />
    <path
       style="fill:#999999"
       d="M 11.577711,12.823488 C 10.892072,12.684422 10.316846,12.225076 10.06141,11.612648 9.8624268,11.13557 9.887313,10.182911 10.111201,9.7066101 10.700129,8.453719 12.743877,8.2590953 13.658586,9.3687967 c 0.540726,0.6559943 0.603063,1.8318493 0.137071,2.5855733 -0.40776,0.659537 -1.377579,1.039568 -2.217946,0.869118 z"
       id="path3347"
       inkscape:connector-curvature="0"
       transform="translate(444.64286,781.36218)" />
    <path
       style="fill:#4d4d4d"
       d="M 3.3345613,20.801115 C 1.7847702,20.375066 0.53399512,19.072047 0.16254854,17.496611 -0.02653942,16.694622 -0.02398073,5.2775277 0.16546709,4.4738181 0.53825045,2.8923297 1.8173107,1.5985037 3.4208761,1.1808279 3.8438056,1.0706688 5.8952998,1.0538058 18.873959,1.0538058 l 14.965411,0 -0.418044,0.4599586 -0.418045,0.4599586 -14.507156,0.0092 C 2.6363153,1.992984 3.5803721,1.9636545 2.7088577,2.4733937 2.1838382,2.7804717 1.5936012,3.4579304 1.2867765,4.1056215 l -0.2716846,0.5735124 0,6.3549871 0,6.354987 0.274441,0.560811 c 0.3505303,0.716298 1.0022444,1.368698 1.7204876,1.722301 l 0.5605004,0.275943 14.7163801,0.03117 14.71638,0.03117 0.418045,0.459316 0.418044,0.459316 -15.04731,-0.0076 C 6.5995555,20.915326 3.6669288,20.892485 3.3345613,20.801115 Z"
       id="path3349"
       inkscape:connector-curvature="0"
       transform="translate(444.64286,781.36218)" />
  </g>
</svg>
