/* XPM */
static char * maximize_toggled_pressed_xpm[] = {
"20 20 3 1",
" 	c None",
".	c #454545",
"+	c #FFFFFF",
"....................",
"....................",
".......++++++.......",
"......++++++++......",
"....++++++++++++....",
"....++++++++++++....",
"...++++++++...+++...",
"...++++++++...+++...",
"..+++++++++...++++..",
"..++++++++++++++++..",
"..++++++++++++++++..",
"..++++...+++++++++..",
"...+++...++++++++...",
"...+++...++++++++...",
"....++++++++++++....",
"....++++++++++++....",
"......++++++++......",
".......++++++.......",
"....................",
"...................."};
