/* XPM */
static char * menu_prelight_xpm[] = {
"20 20 3 1",
" 	c None",
".	c #454545",
"+	c #FFFFFF",
"....................",
"....................",
"....................",
"....................",
"....................",
"....................",
"....................",
".........++.........",
"........++++........",
".......++++++.......",
".......++++++.......",
"........++++........",
".........++.........",
"....................",
"....................",
"....................",
"....................",
"....................",
"....................",
"...................."};
