/* XPM */
static char * shade_toggled_inactive_xpm[] = {
"20 20 3 1",
" 	c None",
".	c #454545",
"+	c #FFFFFF",
"....................",
"....................",
"....................",
"....................",
"....................",
"....................",
"......++++++++......",
"....................",
".........++.........",
".........++.........",
".........++.........",
"........++++........",
".........++.........",
"....................",
"....................",
"....................",
"....................",
"....................",
"....................",
"...................."};
